<svg xmlns="http://www.w3.org/2000/svg" width="512" height="512"><rect width="512" height="512" x="0" y="0" fill="#ffffff" id="background" data-darkreader-inline-fill="" style="--darkreader-inline-fill: var(--darkreader-background-ffffff, #1c1e1f);"/><g transform="translate(20,21)" id="viz"><g id="nodes"><g transform="translate(237,236.5)"><path id="p_709" d="M-4.326064817988025e-14,235.5A235.5,235.5,0,1,1,4.326064817988025e-14,-235.5A235.5,235.5,0,1,1,-4.326064817988025e-14,235.5Z" fill="none" stroke="#ccc" data-darkreader-inline-stroke="" style="--darkreader-inline-stroke: var(--darkreader-text-cccccc, #e6e0d8);"/></g><g transform="translate(189.01079152784206,238.3556127145001)" id="Technology"><path id="p_527.9826976826505" d="M-1.848291325556168e-14,100.61629344030843A100.61629344030843,100.61629344030843,0,1,1,1.848291325556168e-14,-100.61629344030843A100.61629344030843,100.61629344030843,0,1,1,-1.848291325556168e-14,100.61629344030843Z" fill="none" stroke="#ccc" data-darkreader-inline-stroke="" style="--darkreader-inline-stroke: var(--darkreader-text-cccccc, #e6e0d8);"/></g><g transform="translate(373.9571577005328,238.3556127145001)" id="Finance"><path id="p_694.7529705427298" d="M-1.514401908111768e-14,82.44020012769688A82.44020012769688,82.44020012769688,0,1,1,1.514401908111768e-14,-82.44020012769688A82.44020012769688,82.44020012769688,0,1,1,-1.514401908111768e-14,82.44020012769688Z" fill="none" stroke="#ccc" data-darkreader-inline-stroke="" style="--darkreader-inline-stroke: var(--darkreader-text-cccccc, #e6e0d8);"/></g><g transform="translate(298.2252084049379,380.724493055791)" id="Healthcare"><path id="p_755.8778881563317" d="M-1.4131478640147e-14,76.92818669560283A76.92818669560283,76.92818669560283,0,1,1,1.4131478640147e-14,-76.92818669560283A76.92818669560283,76.92818669560283,0,1,1,-1.4131478640147e-14,76.92818669560283Z" fill="none" stroke="#ccc" data-darkreader-inline-stroke="" style="--darkreader-inline-stroke: var(--darkreader-text-cccccc, #e6e0d8);"/></g><g transform="translate(297.4702585107129,105.18098670030966)" id="Energy"><path id="p_471.897624976063" d="M-1.2720353599769826e-14,69.24637976504046A69.24637976504046,69.24637976504046,0,1,1,1.2720353599769826e-14,-69.24637976504046A69.24637976504046,69.24637976504046,0,1,1,-1.2720353599769826e-14,69.24637976504046Z" fill="none" stroke="#ccc" data-darkreader-inline-stroke="" style="--darkreader-inline-stroke: var(--darkreader-text-cccccc, #e6e0d8);"/></g><g transform="translate(169.23371670066462,76.86709535588108)" id="Consumer Staples"><path id="p_306.28967951720244" d="M-1.1056515581999641e-14,60.18886746065678A60.18886746065678,60.18886746065678,0,1,1,1.1056515581999641e-14,-60.18886746065678A60.18886746065678,60.18886746065678,0,1,1,-1.1056515581999641e-14,60.18886746065678Z" fill="none" stroke="#ccc" data-darkreader-inline-stroke="" style="--darkreader-inline-stroke: var(--darkreader-text-cccccc, #e6e0d8);"/></g><g transform="translate(164.4255390976174,394.6435269073686)" id="Industrials"><path id="p_614.7727187444635" d="M-1.0232595004232538e-14,55.70365273947759A55.70365273947759,55.70365273947759,0,1,1,1.0232595004232538e-14,-55.70365273947759A55.70365273947759,55.70365273947759,0,1,1,-1.0232595004232538e-14,55.70365273947759Z" fill="none" stroke="#ccc" data-darkreader-inline-stroke="" style="--darkreader-inline-stroke: var(--darkreader-text-cccccc, #e6e0d8);"/></g><g transform="translate(142.98391133159868,217.85929164667593)" id="Microsoft"><path id="p_409.18537153290526" d="M-8.880312297640548e-15,48.34216855463071A48.34216855463071,48.34216855463071,0,1,1,8.880312297640548e-15,-48.34216855463071A48.34216855463071,48.34216855463071,0,1,1,-8.880312297640548e-15,48.34216855463071Z" fill="#8c564b" stroke="none" data-darkreader-inline-fill="" data-darkreader-inline-stroke="" style="--darkreader-inline-fill: var(--darkreader-background-8c564b, #814f45); --darkreader-inline-stroke: none;"/></g><g transform="translate(238.43591050719104,217.85929164667593)" id="Apple"><path id="p_501.5151601701432" d="M-8.306771526331557e-15,45.21995801627623A45.21995801627623,45.21995801627623,0,1,1,8.306771526331557e-15,-45.21995801627623A45.21995801627623,45.21995801627623,0,1,1,-8.306771526331557e-15,45.21995801627623Z" fill="#8c564b" stroke="none" data-darkreader-inline-fill="" data-darkreader-inline-stroke="" style="--darkreader-inline-fill: var(--darkreader-background-8c564b, #814f45); --darkreader-inline-stroke: none;"/></g><g transform="translate(193.67540572494136,294.8999957012875)" id="Alphabet"><path id="p_530.5653624413425" d="M-7.71343070302216e-15,41.98996101511364A41.98996101511364,41.98996101511364,0,1,1,7.71343070302216e-15,-41.98996101511364A41.98996101511364,41.98996101511364,0,1,1,-7.71343070302216e-15,41.98996101511364Z" fill="#8c564b" stroke="none" data-darkreader-inline-fill="" data-darkreader-inline-stroke="" style="--darkreader-inline-fill: var(--darkreader-background-8c564b, #814f45); --darkreader-inline-stroke: none;"/></g><g transform="translate(335.25620068261685,225.66599976173688)" id="JPMorgan Chase"><path id="p_600.7442779313826" d="M-7.315196959483175e-15,39.82207748702892A39.82207748702892,39.82207748702892,0,1,1,7.315196959483175e-15,-39.82207748702892A39.82207748702892,39.82207748702892,0,1,1,-7.315196959483175e-15,39.82207748702892Z" fill="#2ca02c" stroke="none" data-darkreader-inline-fill="" data-darkreader-inline-stroke="" style="--darkreader-inline-fill: var(--darkreader-background-2ca02c, #289328); --darkreader-inline-stroke: none;"/></g><g transform="translate(414.7742963854636,225.66599976173688)" id="Goldman Sachs"><path id="p_678.2464417583328" d="M-6.944876281615807e-15,37.8061456111324A37.8061456111324,37.8061456111324,0,1,1,6.944876281615807e-15,-37.8061456111324A37.8061456111324,37.8061456111324,0,1,1,-6.944876281615807e-15,37.8061456111324Z" fill="#2ca02c" stroke="none" data-darkreader-inline-fill="" data-darkreader-inline-stroke="" style="--darkreader-inline-fill: var(--darkreader-background-2ca02c, #289328); --darkreader-inline-stroke: none;"/></g><g transform="translate(376.86193017609753,286.68065300880414)" id="Wells Fargo"><path id="p_695.68064756539" d="M-5.903666651153487e-15,32.138064380488316A32.138064380488316,32.138064380488316,0,1,1,5.903666651153487e-15,-32.138064380488316A32.138064380488316,32.138064380488316,0,1,1,-5.903666651153487e-15,32.138064380488316Z" fill="#2ca02c" stroke="none" data-darkreader-inline-fill="" data-darkreader-inline-stroke="" style="--darkreader-inline-fill: var(--darkreader-background-2ca02c, #289328); --darkreader-inline-stroke: none;"/></g><g transform="translate(262.8749589246306,364.77522471530074)" id="Johnson &amp; Johnson"><path id="p_663.9068100559044" d="M-6.660234223230411e-15,36.25662641597303A36.25662641597303,36.25662641597303,0,1,1,6.660234223230411e-15,-36.25662641597303A36.25662641597303,36.25662641597303,0,1,1,-6.660234223230411e-15,36.25662641597303Z" fill="#d62728" stroke="none" data-darkreader-inline-fill="" data-darkreader-inline-stroke="" style="--darkreader-inline-fill: var(--darkreader-background-d62728, #c52425); --darkreader-inline-stroke: none;"/></g><g transform="translate(335.5083886805285,364.77522471530074)" id="Pfizer"><path id="p_734.7705441310686" d="M-6.3351464005991165e-15,34.48693073523943A34.48693073523943,34.48693073523943,0,1,1,6.3351464005991165e-15,-34.48693073523943A34.48693073523943,34.48693073523943,0,1,1,-6.3351464005991165e-15,34.48693073523943Z" fill="#d62728" stroke="none" data-darkreader-inline-fill="" data-darkreader-inline-stroke="" style="--darkreader-inline-fill: var(--darkreader-background-d62728, #c52425); --darkreader-inline-stroke: none;"/></g><g transform="translate(300.8786160660389,423.705643052716)" id="Merck"><path id="p_756.5595980770348" d="M-5.873774476036371e-15,31.9753389582799A31.9753389582799,31.9753389582799,0,1,1,5.873774476036371e-15,-31.9753389582799A31.9753389582799,31.9753389582799,0,1,1,-5.873774476036371e-15,31.9753389582799Z" fill="#d62728" stroke="none" data-darkreader-inline-fill="" data-darkreader-inline-stroke="" style="--darkreader-inline-fill: var(--darkreader-background-d62728, #c52425); --darkreader-inline-stroke: none;"/></g><g transform="translate(265.61841096483545,92.14331572414902)" id="ExxonMobil"><path id="p_390.7013621645329" d="M-6.0509128725316485e-15,32.939635475548435A32.939635475548435,32.939635475548435,0,1,1,6.0509128725316485e-15,-32.939635475548435A32.939635475548435,32.939635475548435,0,1,1,-6.0509128725316485e-15,32.939635475548435Z" fill="#ff7f0e" stroke="none" data-darkreader-inline-fill="" data-darkreader-inline-stroke="" style="--darkreader-inline-fill: var(--darkreader-background-ff7f0e, #e16a00); --darkreader-inline-stroke: none;"/></g><g transform="translate(331.42896192183144,92.14331572414902)" id="Chevron"><path id="p_454.55332052274264" d="M-5.691125248991056e-15,30.981042876762178A30.981042876762178,30.981042876762178,0,1,1,5.691125248991056e-15,-30.981042876762178A30.981042876762178,30.981042876762178,0,1,1,-5.691125248991056e-15,30.981042876762178Z" fill="#ff7f0e" stroke="none" data-darkreader-inline-fill="" data-darkreader-inline-stroke="" style="--darkreader-inline-fill: var(--darkreader-background-ff7f0e, #e16a00); --darkreader-inline-stroke: none;"/></g><g transform="translate(300.36359948458875,144.45847578517902)" id="Shell"><path id="p_472.79466984131136" d="M-5.138482260883118e-15,27.972594571543567A27.972594571543567,27.972594571543567,0,1,1,5.138482260883118e-15,-27.972594571543567A27.972594571543567,27.972594571543567,0,1,1,-5.138482260883118e-15,27.972594571543567Z" fill="#ff7f0e" stroke="none" data-darkreader-inline-fill="" data-darkreader-inline-stroke="" style="--darkreader-inline-fill: var(--darkreader-background-ff7f0e, #e16a00); --darkreader-inline-stroke: none;"/></g><g transform="translate(141.72621852763615,65.47695245830886)" id="Coca-Cola"><path id="p_235.72973209916907" d="M-5.240244263698679e-15,28.52656111322405A28.52656111322405,28.52656111322405,0,1,1,5.240244263698679e-15,-28.52656111322405A28.52656111322405,28.52656111322405,0,1,1,-5.240244263698679e-15,28.52656111322405Z" fill="#1f77b4" stroke="none" data-darkreader-inline-fill="" data-darkreader-inline-stroke="" style="--darkreader-inline-fill: var(--darkreader-background-1f77b4, #1d6da6); --darkreader-inline-stroke: none;"/></g><g transform="translate(198.77788985798892,65.47695245830886)" id="Procter &amp; Gamble"><path id="p_290.89007992874105" d="M-4.892813772991178e-15,26.635237612443284A26.635237612443284,26.635237612443284,0,1,1,4.892813772991178e-15,-26.635237612443284A26.635237612443284,26.635237612443284,0,1,1,-4.892813772991178e-15,26.635237612443284Z" fill="#1f77b4" stroke="none" data-darkreader-inline-fill="" data-darkreader-inline-stroke="" style="--darkreader-inline-fill: var(--darkreader-background-1f77b4, #1d6da6); --darkreader-inline-stroke: none;"/></g><g transform="translate(172.03033870184817,110.88022790563656)" id="Nestle"><path id="p_307.08165088480007" d="M-4.440156148820274e-15,24.171084277315355A24.171084277315355,24.171084277315355,0,1,1,4.440156148820274e-15,-24.171084277315355A24.171084277315355,24.171084277315355,0,1,1,-4.440156148820274e-15,24.171084277315355Z" fill="#1f77b4" stroke="none" data-darkreader-inline-fill="" data-darkreader-inline-stroke="" style="--darkreader-inline-fill: var(--darkreader-background-1f77b4, #1d6da6); --darkreader-inline-stroke: none;"/></g><g transform="translate(138.92725181624016,382.1813927310613)" id="Caterpillar"><path id="p_546.5416663674902" d="M-4.671970314710842e-15,25.433021820188756A25.433021820188756,25.433021820188756,0,1,1,4.671970314710842e-15,-25.433021820188756A25.433021820188756,25.433021820188756,0,1,1,-4.671970314710842e-15,25.433021820188756Z" fill="#9467bd" stroke="none" data-darkreader-inline-fill="" data-darkreader-inline-stroke="" style="--darkreader-inline-fill: var(--darkreader-background-9467bd, #6b3f92); --darkreader-inline-stroke: none;"/></g><g transform="translate(190.84907053458946,382.1813927310613)" id="Honeywell"><path id="p_597.6293875591258" d="M-4.5187490847708545e-15,24.598924293475115A24.598924293475115,24.598924293475115,0,1,1,4.5187490847708545e-15,-24.598924293475115A24.598924293475115,24.598924293475115,0,1,1,-4.5187490847708545e-15,24.598924293475115Z" fill="#9467bd" stroke="none" data-darkreader-inline-fill="" data-darkreader-inline-stroke="" style="--darkreader-inline-fill: var(--darkreader-background-9467bd, #6b3f92); --darkreader-inline-stroke: none;"/></g><g transform="translate(165.69456137804755,425.1390747065401)" id="Siemens"><path id="p_614.1254756991609" d="M-4.2786415245360995e-15,23.291839614573263A23.291839614573263,23.291839614573263,0,1,1,4.2786415245360995e-15,-23.291839614573263A23.291839614573263,23.291839614573263,0,1,1,-4.2786415245360995e-15,23.291839614573263Z" fill="#9467bd" stroke="none" data-darkreader-inline-fill="" data-darkreader-inline-stroke="" style="--darkreader-inline-fill: var(--darkreader-background-9467bd, #6b3f92); --darkreader-inline-stroke: none;"/></g></g><g id="labels"><g transform="translate(142.98391133159868,217.85929164667593)"><text text-anchor="middle" dominant-baseline="text-before-edge" transform="translate(0,-5.55224609375)"><tspan x="0" y="0" dy="0" style="font-family: Arial, sans-serif; font-size: 10px; fill: black; font-weight: bold; --darkreader-inline-fill: var(--darkreader-text-000000, #ffffff);" data-darkreader-inline-fill="">Technology</tspan></text></g><g transform="translate(238.43591050719104,217.85929164667593)"><text text-anchor="middle" dominant-baseline="text-before-edge" transform="translate(0,-5.55224609375)"><tspan x="0" y="0" dy="0" style="font-family: Arial, sans-serif; font-size: 10px; fill: black; font-weight: bold; --darkreader-inline-fill: var(--darkreader-text-000000, #ffffff);" data-darkreader-inline-fill="">Technology</tspan></text></g><g transform="translate(193.67540572494136,294.8999957012875)"><text text-anchor="middle" dominant-baseline="text-before-edge" transform="translate(0,-5.55224609375)"><tspan x="0" y="0" dy="0" style="font-family: Arial, sans-serif; font-size: 10px; fill: black; font-weight: bold; --darkreader-inline-fill: var(--darkreader-text-000000, #ffffff);" data-darkreader-inline-fill="">Technology</tspan></text></g><g transform="translate(335.25620068261685,225.66599976173688)"><text text-anchor="middle" dominant-baseline="text-before-edge" transform="translate(0,-5.55224609375)"><tspan x="0" y="0" dy="0" style="font-family: Arial, sans-serif; font-size: 10px; fill: black; font-weight: bold; --darkreader-inline-fill: var(--darkreader-text-000000, #ffffff);" data-darkreader-inline-fill="">Finance</tspan></text></g><g transform="translate(414.7742963854636,225.66599976173688)"><text text-anchor="middle" dominant-baseline="text-before-edge" transform="translate(0,-5.55224609375)"><tspan x="0" y="0" dy="0" style="font-family: Arial, sans-serif; font-size: 10px; fill: black; font-weight: bold; --darkreader-inline-fill: var(--darkreader-text-000000, #ffffff);" data-darkreader-inline-fill="">Finance</tspan></text></g><g transform="translate(376.86193017609753,286.68065300880414)"><text text-anchor="middle" dominant-baseline="text-before-edge" transform="translate(0,-5.55224609375)"><tspan x="0" y="0" dy="0" style="font-family: Arial, sans-serif; font-size: 10px; fill: black; font-weight: bold; --darkreader-inline-fill: var(--darkreader-text-000000, #ffffff);" data-darkreader-inline-fill="">Finance</tspan></text></g><g transform="translate(262.8749589246306,364.77522471530074)"><text text-anchor="middle" dominant-baseline="text-before-edge" transform="translate(0,-5.55224609375)"><tspan x="0" y="0" dy="0" style="font-family: Arial, sans-serif; font-size: 10px; fill: black; font-weight: bold; --darkreader-inline-fill: var(--darkreader-text-000000, #ffffff);" data-darkreader-inline-fill="">Healthcare</tspan></text></g><g transform="translate(335.5083886805285,364.77522471530074)"><text text-anchor="middle" dominant-baseline="text-before-edge" transform="translate(0,-5.55224609375)"><tspan x="0" y="0" dy="0" style="font-family: Arial, sans-serif; font-size: 10px; fill: black; font-weight: bold; --darkreader-inline-fill: var(--darkreader-text-000000, #ffffff);" data-darkreader-inline-fill="">Healthcare</tspan></text></g><g transform="translate(300.8786160660389,423.705643052716)"><text text-anchor="middle" dominant-baseline="text-before-edge" transform="translate(0,-5.55224609375)"><tspan x="0" y="0" dy="0" style="font-family: Arial, sans-serif; font-size: 10px; fill: black; font-weight: bold; --darkreader-inline-fill: var(--darkreader-text-000000, #ffffff);" data-darkreader-inline-fill="">Healthcare</tspan></text></g><g transform="translate(265.61841096483545,92.14331572414902)"><text text-anchor="middle" dominant-baseline="text-before-edge" transform="translate(0,-5.55224609375)"><tspan x="0" y="0" dy="0" style="font-family: Arial, sans-serif; font-size: 10px; fill: black; font-weight: bold; --darkreader-inline-fill: var(--darkreader-text-000000, #ffffff);" data-darkreader-inline-fill="">Energy</tspan></text></g><g transform="translate(331.42896192183144,92.14331572414902)"><text text-anchor="middle" dominant-baseline="text-before-edge" transform="translate(0,-5.55224609375)"><tspan x="0" y="0" dy="0" style="font-family: Arial, sans-serif; font-size: 10px; fill: black; font-weight: bold; --darkreader-inline-fill: var(--darkreader-text-000000, #ffffff);" data-darkreader-inline-fill="">Energy</tspan></text></g><g transform="translate(300.36359948458875,144.45847578517902)"><text text-anchor="middle" dominant-baseline="text-before-edge" transform="translate(0,-5.55224609375)"><tspan x="0" y="0" dy="0" style="font-family: Arial, sans-serif; font-size: 10px; fill: black; font-weight: bold; --darkreader-inline-fill: var(--darkreader-text-000000, #ffffff);" data-darkreader-inline-fill="">Energy</tspan></text></g><g transform="translate(141.72621852763615,65.47695245830886)"><text text-anchor="middle" dominant-baseline="text-before-edge" transform="translate(0,-5.55224609375)"><tspan x="0" y="0" dy="0" style="font-family: Arial, sans-serif; font-size: 10px; fill: black; font-weight: bold; --darkreader-inline-fill: var(--darkreader-text-000000, #ffffff);" data-darkreader-inline-fill="">Consumer Staples</tspan></text></g><g transform="translate(198.77788985798892,65.47695245830886)"><text text-anchor="middle" dominant-baseline="text-before-edge" transform="translate(0,-5.55224609375)"><tspan x="0" y="0" dy="0" style="font-family: Arial, sans-serif; font-size: 10px; fill: black; font-weight: bold; --darkreader-inline-fill: var(--darkreader-text-000000, #ffffff);" data-darkreader-inline-fill="">Consumer Staples</tspan></text></g><g transform="translate(172.03033870184817,110.88022790563656)"><text text-anchor="middle" dominant-baseline="text-before-edge" transform="translate(0,-5.55224609375)"><tspan x="0" y="0" dy="0" style="font-family: Arial, sans-serif; font-size: 10px; fill: black; font-weight: bold; --darkreader-inline-fill: var(--darkreader-text-000000, #ffffff);" data-darkreader-inline-fill="">Consumer Staples</tspan></text></g><g transform="translate(138.92725181624016,382.1813927310613)"><text text-anchor="middle" dominant-baseline="text-before-edge" transform="translate(0,-5.55224609375)"><tspan x="0" y="0" dy="0" style="font-family: Arial, sans-serif; font-size: 10px; fill: black; font-weight: bold; --darkreader-inline-fill: var(--darkreader-text-000000, #ffffff);" data-darkreader-inline-fill="">Industrials</tspan></text></g><g transform="translate(190.84907053458946,382.1813927310613)"><text text-anchor="middle" dominant-baseline="text-before-edge" transform="translate(0,-5.55224609375)"><tspan x="0" y="0" dy="0" style="font-family: Arial, sans-serif; font-size: 10px; fill: black; font-weight: bold; --darkreader-inline-fill: var(--darkreader-text-000000, #ffffff);" data-darkreader-inline-fill="">Industrials</tspan></text></g><g transform="translate(165.69456137804755,425.1390747065401)"><text text-anchor="middle" dominant-baseline="text-before-edge" transform="translate(0,-5.55224609375)"><tspan x="0" y="0" dy="0" style="font-family: Arial, sans-serif; font-size: 10px; fill: black; font-weight: bold; --darkreader-inline-fill: var(--darkreader-text-000000, #ffffff);" data-darkreader-inline-fill="">Industrials</tspan></text></g></g></g></svg>